<mxfile host="app.diagrams.net" modified="2021-11-17T09:52:07.619Z" agent="5.0 (Windows NT 10.0; Win64; x64) AppleWebKit/537.36 (KHTML, like Gecko) Chrome/95.0.4638.69 Safari/537.36" etag="SKhHojPZbUUJ-FGtn2sI" version="15.7.3" type="github">
  <diagram id="NlKHI6trEtiHi1XTqEEs" name="Page-1">
    <mxGraphModel dx="1865" dy="588" grid="1" gridSize="10" guides="1" tooltips="1" connect="1" arrows="1" fold="1" page="1" pageScale="1" pageWidth="827" pageHeight="1169" math="0" shadow="0">
      <root>
        <mxCell id="0" />
        <mxCell id="1" parent="0" />
        <mxCell id="L6jDz-sPjVb8ubE6nO0k-13" style="edgeStyle=orthogonalEdgeStyle;rounded=0;orthogonalLoop=1;jettySize=auto;html=1;entryX=1;entryY=0.5;entryDx=0;entryDy=0;entryPerimeter=0;strokeColor=#FF0000;" edge="1" parent="1" source="L6jDz-sPjVb8ubE6nO0k-5" target="L6jDz-sPjVb8ubE6nO0k-15">
          <mxGeometry relative="1" as="geometry">
            <mxPoint x="220" y="280" as="targetPoint" />
          </mxGeometry>
        </mxCell>
        <mxCell id="L6jDz-sPjVb8ubE6nO0k-14" value="&amp;nbsp;是&amp;nbsp;" style="edgeLabel;html=1;align=center;verticalAlign=middle;resizable=0;points=[];" vertex="1" connectable="0" parent="L6jDz-sPjVb8ubE6nO0k-13">
          <mxGeometry x="-0.1171" y="2" relative="1" as="geometry">
            <mxPoint y="-2" as="offset" />
          </mxGeometry>
        </mxCell>
        <mxCell id="L6jDz-sPjVb8ubE6nO0k-59" style="edgeStyle=orthogonalEdgeStyle;rounded=0;orthogonalLoop=1;jettySize=auto;html=1;strokeColor=#000000;" edge="1" parent="1" source="L6jDz-sPjVb8ubE6nO0k-5" target="L6jDz-sPjVb8ubE6nO0k-58">
          <mxGeometry relative="1" as="geometry">
            <Array as="points">
              <mxPoint x="455" y="235" />
            </Array>
          </mxGeometry>
        </mxCell>
        <mxCell id="L6jDz-sPjVb8ubE6nO0k-61" value="否" style="edgeLabel;html=1;align=center;verticalAlign=middle;resizable=0;points=[];" vertex="1" connectable="0" parent="L6jDz-sPjVb8ubE6nO0k-59">
          <mxGeometry x="-0.2122" y="-2" relative="1" as="geometry">
            <mxPoint as="offset" />
          </mxGeometry>
        </mxCell>
        <mxCell id="L6jDz-sPjVb8ubE6nO0k-5" value="&lt;span&gt;用户是否会员&lt;/span&gt;" style="strokeWidth=2;html=1;shape=mxgraph.flowchart.decision;whiteSpace=wrap;" vertex="1" parent="1">
          <mxGeometry x="330" y="200" width="115" height="70" as="geometry" />
        </mxCell>
        <mxCell id="L6jDz-sPjVb8ubE6nO0k-10" style="edgeStyle=orthogonalEdgeStyle;rounded=0;orthogonalLoop=1;jettySize=auto;html=1;strokeColor=#FF0000;" edge="1" parent="1" source="L6jDz-sPjVb8ubE6nO0k-7" target="L6jDz-sPjVb8ubE6nO0k-8">
          <mxGeometry relative="1" as="geometry" />
        </mxCell>
        <mxCell id="L6jDz-sPjVb8ubE6nO0k-7" value="开始" style="strokeWidth=2;html=1;shape=mxgraph.flowchart.start_1;whiteSpace=wrap;" vertex="1" parent="1">
          <mxGeometry x="-70" y="112.5" width="90" height="50" as="geometry" />
        </mxCell>
        <mxCell id="L6jDz-sPjVb8ubE6nO0k-48" style="edgeStyle=orthogonalEdgeStyle;rounded=0;orthogonalLoop=1;jettySize=auto;html=1;entryX=0;entryY=0.5;entryDx=0;entryDy=0;entryPerimeter=0;strokeColor=#FF0000;" edge="1" parent="1" source="L6jDz-sPjVb8ubE6nO0k-8" target="L6jDz-sPjVb8ubE6nO0k-45">
          <mxGeometry relative="1" as="geometry" />
        </mxCell>
        <mxCell id="L6jDz-sPjVb8ubE6nO0k-8" value="&lt;span&gt;入参验证&lt;/span&gt;" style="rounded=1;whiteSpace=wrap;html=1;absoluteArcSize=1;arcSize=14;strokeWidth=2;" vertex="1" parent="1">
          <mxGeometry x="60" y="122.5" width="90" height="30" as="geometry" />
        </mxCell>
        <mxCell id="L6jDz-sPjVb8ubE6nO0k-18" style="edgeStyle=orthogonalEdgeStyle;rounded=0;orthogonalLoop=1;jettySize=auto;html=1;exitX=0;exitY=0.5;exitDx=0;exitDy=0;exitPerimeter=0;" edge="1" parent="1" source="L6jDz-sPjVb8ubE6nO0k-15" target="L6jDz-sPjVb8ubE6nO0k-16">
          <mxGeometry relative="1" as="geometry" />
        </mxCell>
        <mxCell id="L6jDz-sPjVb8ubE6nO0k-19" value="&amp;nbsp;有流水&amp;nbsp;" style="edgeLabel;html=1;align=center;verticalAlign=middle;resizable=0;points=[];" vertex="1" connectable="0" parent="L6jDz-sPjVb8ubE6nO0k-18">
          <mxGeometry x="-0.1712" y="-1" relative="1" as="geometry">
            <mxPoint x="12" y="1" as="offset" />
          </mxGeometry>
        </mxCell>
        <mxCell id="L6jDz-sPjVb8ubE6nO0k-23" style="edgeStyle=orthogonalEdgeStyle;rounded=0;orthogonalLoop=1;jettySize=auto;html=1;entryX=0.5;entryY=0;entryDx=0;entryDy=0;entryPerimeter=0;strokeColor=#FF0000;" edge="1" parent="1" source="L6jDz-sPjVb8ubE6nO0k-15" target="L6jDz-sPjVb8ubE6nO0k-22">
          <mxGeometry relative="1" as="geometry" />
        </mxCell>
        <mxCell id="L6jDz-sPjVb8ubE6nO0k-24" value="无流水" style="edgeLabel;html=1;align=center;verticalAlign=middle;resizable=0;points=[];" vertex="1" connectable="0" parent="L6jDz-sPjVb8ubE6nO0k-23">
          <mxGeometry x="0.304" y="3" relative="1" as="geometry">
            <mxPoint x="-8" y="-15" as="offset" />
          </mxGeometry>
        </mxCell>
        <mxCell id="L6jDz-sPjVb8ubE6nO0k-15" value="&lt;span&gt;查询订单积分流水&lt;/span&gt;" style="strokeWidth=2;html=1;shape=mxgraph.flowchart.decision;whiteSpace=wrap;" vertex="1" parent="1">
          <mxGeometry x="35" y="210" width="170" height="50" as="geometry" />
        </mxCell>
        <mxCell id="L6jDz-sPjVb8ubE6nO0k-41" style="edgeStyle=orthogonalEdgeStyle;rounded=0;orthogonalLoop=1;jettySize=auto;html=1;entryX=0.5;entryY=0;entryDx=0;entryDy=0;entryPerimeter=0;" edge="1" parent="1" source="L6jDz-sPjVb8ubE6nO0k-16" target="L6jDz-sPjVb8ubE6nO0k-37">
          <mxGeometry relative="1" as="geometry" />
        </mxCell>
        <mxCell id="L6jDz-sPjVb8ubE6nO0k-16" value="更新订单金额" style="rounded=1;whiteSpace=wrap;html=1;absoluteArcSize=1;arcSize=14;strokeWidth=2;" vertex="1" parent="1">
          <mxGeometry x="-100" y="300" width="110" height="40" as="geometry" />
        </mxCell>
        <mxCell id="L6jDz-sPjVb8ubE6nO0k-29" style="edgeStyle=orthogonalEdgeStyle;rounded=0;orthogonalLoop=1;jettySize=auto;html=1;entryX=0;entryY=0.5;entryDx=0;entryDy=0;" edge="1" parent="1" source="L6jDz-sPjVb8ubE6nO0k-22" target="L6jDz-sPjVb8ubE6nO0k-25">
          <mxGeometry relative="1" as="geometry" />
        </mxCell>
        <mxCell id="L6jDz-sPjVb8ubE6nO0k-30" value="&amp;nbsp;是&amp;nbsp;" style="edgeLabel;html=1;align=center;verticalAlign=middle;resizable=0;points=[];" vertex="1" connectable="0" parent="L6jDz-sPjVb8ubE6nO0k-29">
          <mxGeometry x="-0.1114" y="-2" relative="1" as="geometry">
            <mxPoint as="offset" />
          </mxGeometry>
        </mxCell>
        <mxCell id="L6jDz-sPjVb8ubE6nO0k-33" style="edgeStyle=orthogonalEdgeStyle;rounded=0;orthogonalLoop=1;jettySize=auto;html=1;entryX=0.5;entryY=0;entryDx=0;entryDy=0;strokeColor=#FF0000;" edge="1" parent="1" source="L6jDz-sPjVb8ubE6nO0k-22" target="L6jDz-sPjVb8ubE6nO0k-31">
          <mxGeometry relative="1" as="geometry" />
        </mxCell>
        <mxCell id="L6jDz-sPjVb8ubE6nO0k-35" value="否" style="edgeLabel;html=1;align=center;verticalAlign=middle;resizable=0;points=[];" vertex="1" connectable="0" parent="L6jDz-sPjVb8ubE6nO0k-33">
          <mxGeometry x="0.1493" y="-4" relative="1" as="geometry">
            <mxPoint x="4" y="-13" as="offset" />
          </mxGeometry>
        </mxCell>
        <mxCell id="L6jDz-sPjVb8ubE6nO0k-22" value="&lt;span&gt;CPOS_UPDATE_STATUS打开 &amp;amp; 当天的cposorderinfo表有orderid的正常单记录&lt;/span&gt;" style="strokeWidth=2;html=1;shape=mxgraph.flowchart.decision;whiteSpace=wrap;" vertex="1" parent="1">
          <mxGeometry y="350" width="240" height="56" as="geometry" />
        </mxCell>
        <mxCell id="L6jDz-sPjVb8ubE6nO0k-66" style="edgeStyle=orthogonalEdgeStyle;rounded=0;orthogonalLoop=1;jettySize=auto;html=1;entryX=0.5;entryY=0;entryDx=0;entryDy=0;strokeColor=#000000;" edge="1" parent="1" source="L6jDz-sPjVb8ubE6nO0k-25" target="L6jDz-sPjVb8ubE6nO0k-64">
          <mxGeometry relative="1" as="geometry" />
        </mxCell>
        <mxCell id="L6jDz-sPjVb8ubE6nO0k-25" value="订单流水状态为审核成功" style="rounded=1;whiteSpace=wrap;html=1;absoluteArcSize=1;arcSize=14;strokeWidth=2;" vertex="1" parent="1">
          <mxGeometry x="305" y="358" width="110" height="40" as="geometry" />
        </mxCell>
        <mxCell id="L6jDz-sPjVb8ubE6nO0k-62" style="edgeStyle=orthogonalEdgeStyle;rounded=0;orthogonalLoop=1;jettySize=auto;html=1;strokeColor=#000000;" edge="1" parent="1" source="L6jDz-sPjVb8ubE6nO0k-26" target="L6jDz-sPjVb8ubE6nO0k-31">
          <mxGeometry relative="1" as="geometry" />
        </mxCell>
        <mxCell id="L6jDz-sPjVb8ubE6nO0k-26" value="elites交易事件" style="rounded=1;whiteSpace=wrap;html=1;absoluteArcSize=1;arcSize=14;strokeWidth=2;" vertex="1" parent="1">
          <mxGeometry x="305" y="490" width="110" height="40" as="geometry" />
        </mxCell>
        <mxCell id="L6jDz-sPjVb8ubE6nO0k-34" style="edgeStyle=orthogonalEdgeStyle;rounded=0;orthogonalLoop=1;jettySize=auto;html=1;strokeColor=#FF0000;" edge="1" parent="1" source="L6jDz-sPjVb8ubE6nO0k-31" target="L6jDz-sPjVb8ubE6nO0k-32">
          <mxGeometry relative="1" as="geometry" />
        </mxCell>
        <mxCell id="L6jDz-sPjVb8ubE6nO0k-31" value="订单流水入库" style="rounded=1;whiteSpace=wrap;html=1;absoluteArcSize=1;arcSize=14;strokeWidth=2;" vertex="1" parent="1">
          <mxGeometry x="65" y="490" width="110" height="40" as="geometry" />
        </mxCell>
        <mxCell id="L6jDz-sPjVb8ubE6nO0k-40" style="edgeStyle=orthogonalEdgeStyle;rounded=0;orthogonalLoop=1;jettySize=auto;html=1;entryX=0.5;entryY=0;entryDx=0;entryDy=0;entryPerimeter=0;strokeColor=#FF0000;" edge="1" parent="1" source="L6jDz-sPjVb8ubE6nO0k-32" target="L6jDz-sPjVb8ubE6nO0k-37">
          <mxGeometry relative="1" as="geometry" />
        </mxCell>
        <mxCell id="L6jDz-sPjVb8ubE6nO0k-32" value="更新订单流水的ordernum" style="rounded=1;whiteSpace=wrap;html=1;absoluteArcSize=1;arcSize=14;strokeWidth=2;" vertex="1" parent="1">
          <mxGeometry x="65" y="560" width="110" height="40" as="geometry" />
        </mxCell>
        <mxCell id="L6jDz-sPjVb8ubE6nO0k-37" value="结束" style="strokeWidth=2;html=1;shape=mxgraph.flowchart.terminator;whiteSpace=wrap;" vertex="1" parent="1">
          <mxGeometry x="-95" y="620" width="100" height="40" as="geometry" />
        </mxCell>
        <mxCell id="L6jDz-sPjVb8ubE6nO0k-46" style="edgeStyle=orthogonalEdgeStyle;rounded=0;orthogonalLoop=1;jettySize=auto;html=1;entryX=0.5;entryY=0;entryDx=0;entryDy=0;entryPerimeter=0;strokeColor=#FF0000;" edge="1" parent="1" source="L6jDz-sPjVb8ubE6nO0k-45" target="L6jDz-sPjVb8ubE6nO0k-5">
          <mxGeometry relative="1" as="geometry">
            <Array as="points">
              <mxPoint x="260" y="180" />
              <mxPoint x="388" y="180" />
            </Array>
          </mxGeometry>
        </mxCell>
        <mxCell id="L6jDz-sPjVb8ubE6nO0k-47" value="&amp;nbsp;否&amp;nbsp;" style="edgeLabel;html=1;align=center;verticalAlign=middle;resizable=0;points=[];" vertex="1" connectable="0" parent="L6jDz-sPjVb8ubE6nO0k-46">
          <mxGeometry x="-0.2051" y="-3" relative="1" as="geometry">
            <mxPoint as="offset" />
          </mxGeometry>
        </mxCell>
        <mxCell id="L6jDz-sPjVb8ubE6nO0k-51" style="edgeStyle=orthogonalEdgeStyle;rounded=0;orthogonalLoop=1;jettySize=auto;html=1;entryX=0;entryY=0.5;entryDx=0;entryDy=0;" edge="1" parent="1" source="L6jDz-sPjVb8ubE6nO0k-45" target="L6jDz-sPjVb8ubE6nO0k-50">
          <mxGeometry relative="1" as="geometry" />
        </mxCell>
        <mxCell id="L6jDz-sPjVb8ubE6nO0k-53" value="是" style="edgeLabel;html=1;align=center;verticalAlign=middle;resizable=0;points=[];" vertex="1" connectable="0" parent="L6jDz-sPjVb8ubE6nO0k-51">
          <mxGeometry x="-0.3572" y="-1" relative="1" as="geometry">
            <mxPoint as="offset" />
          </mxGeometry>
        </mxCell>
        <mxCell id="L6jDz-sPjVb8ubE6nO0k-45" value="&lt;span&gt;是否是ph扫描订单&lt;/span&gt;" style="strokeWidth=2;html=1;shape=mxgraph.flowchart.decision;whiteSpace=wrap;" vertex="1" parent="1">
          <mxGeometry x="190" y="105" width="140" height="65" as="geometry" />
        </mxCell>
        <mxCell id="L6jDz-sPjVb8ubE6nO0k-52" style="edgeStyle=orthogonalEdgeStyle;rounded=0;orthogonalLoop=1;jettySize=auto;html=1;entryX=1;entryY=0.5;entryDx=0;entryDy=0;entryPerimeter=0;" edge="1" parent="1" source="L6jDz-sPjVb8ubE6nO0k-50" target="L6jDz-sPjVb8ubE6nO0k-37">
          <mxGeometry relative="1" as="geometry">
            <Array as="points">
              <mxPoint x="520" y="138" />
              <mxPoint x="520" y="640" />
            </Array>
          </mxGeometry>
        </mxCell>
        <mxCell id="L6jDz-sPjVb8ubE6nO0k-50" value="记录积分流水日志" style="rounded=1;whiteSpace=wrap;html=1;absoluteArcSize=1;arcSize=14;strokeWidth=2;" vertex="1" parent="1">
          <mxGeometry x="390" y="117.5" width="110" height="40" as="geometry" />
        </mxCell>
        <mxCell id="L6jDz-sPjVb8ubE6nO0k-57" value="入参订单信息，为这个订单生成未审核的积分流水记录" style="text;html=1;strokeColor=none;fillColor=none;align=center;verticalAlign=middle;whiteSpace=wrap;rounded=0;" vertex="1" parent="1">
          <mxGeometry x="-300" y="130" width="160" height="70" as="geometry" />
        </mxCell>
        <mxCell id="L6jDz-sPjVb8ubE6nO0k-60" style="edgeStyle=orthogonalEdgeStyle;rounded=0;orthogonalLoop=1;jettySize=auto;html=1;entryX=1;entryY=0.5;entryDx=0;entryDy=0;entryPerimeter=0;strokeColor=#000000;" edge="1" parent="1" source="L6jDz-sPjVb8ubE6nO0k-58" target="L6jDz-sPjVb8ubE6nO0k-37">
          <mxGeometry relative="1" as="geometry">
            <Array as="points">
              <mxPoint x="455" y="640" />
            </Array>
          </mxGeometry>
        </mxCell>
        <mxCell id="L6jDz-sPjVb8ubE6nO0k-58" value="订单流水入库" style="rounded=1;whiteSpace=wrap;html=1;absoluteArcSize=1;arcSize=14;strokeWidth=2;" vertex="1" parent="1">
          <mxGeometry x="400" y="544.5" width="110" height="40" as="geometry" />
        </mxCell>
        <mxCell id="L6jDz-sPjVb8ubE6nO0k-67" style="edgeStyle=orthogonalEdgeStyle;rounded=0;orthogonalLoop=1;jettySize=auto;html=1;entryX=0.5;entryY=0;entryDx=0;entryDy=0;strokeColor=#000000;" edge="1" parent="1" source="L6jDz-sPjVb8ubE6nO0k-64" target="L6jDz-sPjVb8ubE6nO0k-26">
          <mxGeometry relative="1" as="geometry" />
        </mxCell>
        <mxCell id="L6jDz-sPjVb8ubE6nO0k-64" value="订单上传mad" style="rounded=1;whiteSpace=wrap;html=1;absoluteArcSize=1;arcSize=14;strokeWidth=2;" vertex="1" parent="1">
          <mxGeometry x="305" y="420" width="110" height="40" as="geometry" />
        </mxCell>
      </root>
    </mxGraphModel>
  </diagram>
</mxfile>
